<svg width="12" height="58" viewBox="0 0 12 58" fill="none" xmlns="http://www.w3.org/2000/svg">
<line y1="-1" x2="14.0348" y2="-1" transform="matrix(0.712513 -0.701659 0.712513 0.701659 2 58)" stroke="black" stroke-width="2"/>
<line y1="-1" x2="14.0348" y2="-1" transform="matrix(0.712513 -0.701659 0.712513 0.701659 2 48.4503)" stroke="black" stroke-width="2"/>
<line y1="-1" x2="14.0348" y2="-1" transform="matrix(0.712513 -0.701659 0.712513 0.701659 2 38.9005)" stroke="black" stroke-width="2"/>
<line y1="-1" x2="14.0348" y2="-1" transform="matrix(0.712513 -0.701659 0.712513 0.701659 2 29.6492)" stroke="black" stroke-width="2"/>
<line y1="-1" x2="14.0348" y2="-1" transform="matrix(0.712513 -0.701659 0.712513 0.701659 2 20.4974)" stroke="black" stroke-width="2"/>
<line y1="-1" x2="14.0348" y2="-1" transform="matrix(0.712513 -0.701659 0.712513 0.701659 2 11.7434)" stroke="black" stroke-width="2"/>
<line x1="10.9797" y1="1" x2="10.9797" y2="48.7487" stroke="black" stroke-width="2"/>
</svg>
