<svg width="59" height="56" viewBox="0 0 59 56" fill="none" xmlns="http://www.w3.org/2000/svg">
<mask id="path-1-inside-1_9_99" fill="white">
<path fill-rule="evenodd" clip-rule="evenodd" d="M19.5362 12.3C19.552 12.3107 19.5679 12.3213 19.5837 12.3318L1.29998 39.8696H48.9314L30.6476 12.3318C30.6635 12.3213 30.6793 12.3107 30.6951 12.3H30.6265L30.6476 12.3318C29.0633 13.3858 27.1612 14 25.1157 14C23.0701 14 21.168 13.3858 19.5837 12.3318L19.6049 12.3H19.5362Z"/>
</mask>
<path fill-rule="evenodd" clip-rule="evenodd" d="M19.5362 12.3C19.552 12.3107 19.5679 12.3213 19.5837 12.3318L1.29998 39.8696H48.9314L30.6476 12.3318C30.6635 12.3213 30.6793 12.3107 30.6951 12.3H30.6265L30.6476 12.3318C29.0633 13.3858 27.1612 14 25.1157 14C23.0701 14 21.168 13.3858 19.5837 12.3318L19.6049 12.3H19.5362Z" fill="white"/>
<path d="M19.5362 12.3V10.3H12.9865L18.419 13.9588L19.5362 12.3ZM1.29998 39.8696L-0.366205 38.7633L-2.42862 41.8696H1.29998V39.8696ZM48.9314 39.8696V41.8696H52.66L50.5976 38.7633L48.9314 39.8696ZM30.6951 12.3L31.8124 13.9588L37.2449 10.3H30.6951V12.3ZM30.6265 12.3V10.3H26.898L28.9603 13.4062L30.6265 12.3ZM19.6049 12.3L21.2711 13.4062L23.3334 10.3H19.6049V12.3ZM18.419 13.9588C18.4379 13.9716 18.4569 13.9843 18.4759 13.997L20.6916 10.6667C20.6789 10.6582 20.6662 10.6497 20.6535 10.6412L18.419 13.9588ZM17.9176 11.2256L-0.366205 38.7633L2.96616 40.9758L21.2499 13.4381L17.9176 11.2256ZM1.29998 41.8696H48.9314V37.8696H1.29998V41.8696ZM50.5976 38.7633L32.3138 11.2256L28.9814 13.4381L47.2652 40.9758L50.5976 38.7633ZM31.7554 13.997C31.7745 13.9843 31.7935 13.9716 31.8124 13.9588L29.5779 10.6412C29.5652 10.6497 29.5525 10.6582 29.5398 10.6667L31.7554 13.997ZM30.6951 10.3H30.6265V14.3H30.6951V10.3ZM32.3138 11.2256L32.2927 11.1938L28.9603 13.4062L28.9814 13.4381L32.3138 11.2256ZM25.1157 16C27.5675 16 29.8531 15.2626 31.7554 13.997L29.5398 10.6667C28.2735 11.5091 26.755 12 25.1157 12V16ZM18.4759 13.997C20.3783 15.2626 22.6639 16 25.1157 16V12C23.4764 12 21.9578 11.5091 20.6915 10.6667L18.4759 13.997ZM17.9387 11.1938L17.9175 11.2256L21.2499 13.4381L21.2711 13.4062L17.9387 11.1938ZM19.6049 10.3H19.5362V14.3H19.6049V10.3Z" fill="black" mask="url(#path-1-inside-1_9_99)"/>
<circle cx="25.1157" cy="8" r="7" fill="white" stroke="black" stroke-width="2"/>
<line x1="57.5929" y1="54.6066" x2="47.6934" y2="44.7071" stroke="black" stroke-width="2"/>
<line x1="47.9929" y1="54.6066" x2="38.0934" y2="44.7071" stroke="black" stroke-width="2"/>
<line x1="38.3929" y1="54.6066" x2="28.4934" y2="44.7071" stroke="black" stroke-width="2"/>
<line x1="29.0929" y1="54.6066" x2="19.1934" y2="44.7071" stroke="black" stroke-width="2"/>
<line x1="19.8929" y1="54.6066" x2="9.99337" y2="44.7071" stroke="black" stroke-width="2"/>
<line x1="11.0929" y1="54.6066" x2="1.19339" y2="44.7071" stroke="black" stroke-width="2"/>
<line x1="1" y1="45" x2="49" y2="45" stroke="black" stroke-width="2"/>
</svg>
