<svg width="57" height="50" viewBox="0 0 57 50" fill="none" xmlns="http://www.w3.org/2000/svg">
<mask id="path-1-inside-1_9_100" fill="white">
<path fill-rule="evenodd" clip-rule="evenodd" d="M18.4174 12.3C18.4042 12.3 18.399 12.317 18.41 12.3244C18.4137 12.3269 18.4174 12.3293 18.4211 12.3318L1.16859 38.3164C0.727271 38.9811 1.20383 39.8696 2.00168 39.8696H45.9045C46.7023 39.8696 47.1789 38.9811 46.7376 38.3164L29.485 12.3318C29.4887 12.3293 29.4925 12.3269 29.4962 12.3244C29.5072 12.317 29.502 12.3 29.4888 12.3V12.3C29.4781 12.3 29.4718 12.3119 29.4777 12.3208L29.485 12.3318C27.9007 13.3858 25.9986 14 23.9531 14C21.9075 14 20.0054 13.3858 18.4211 12.3318L18.4285 12.3208C18.4344 12.3119 18.428 12.3 18.4174 12.3V12.3Z"/>
</mask>
<path fill-rule="evenodd" clip-rule="evenodd" d="M18.4174 12.3C18.4042 12.3 18.399 12.317 18.41 12.3244C18.4137 12.3269 18.4174 12.3293 18.4211 12.3318L1.16859 38.3164C0.727271 38.9811 1.20383 39.8696 2.00168 39.8696H45.9045C46.7023 39.8696 47.1789 38.9811 46.7376 38.3164L29.485 12.3318C29.4887 12.3293 29.4925 12.3269 29.4962 12.3244C29.5072 12.317 29.502 12.3 29.4888 12.3V12.3C29.4781 12.3 29.4718 12.3119 29.4777 12.3208L29.485 12.3318C27.9007 13.3858 25.9986 14 23.9531 14C21.9075 14 20.0054 13.3858 18.4211 12.3318L18.4285 12.3208C18.4344 12.3119 18.428 12.3 18.4174 12.3V12.3Z" fill="white"/>
<path d="M18.4285 12.3208L16.7623 11.2145L18.4285 12.3208ZM29.4777 12.3208L31.1439 11.2145L29.4777 12.3208ZM46.7376 38.3164L45.0714 39.4227L46.7376 38.3164ZM1.16859 38.3164L-0.497599 37.2102L1.16859 38.3164ZM29.4962 12.3244L30.6063 13.988L29.4962 12.3244ZM18.41 12.3244L17.2999 13.988L18.41 12.3244ZM17.2999 13.988C17.3044 13.991 17.3088 13.994 17.3133 13.997L19.529 10.6667C19.526 10.6647 19.523 10.6627 19.52 10.6607L17.2999 13.988ZM16.755 11.2256L-0.497599 37.2102L2.83477 39.4227L20.0873 13.4381L16.755 11.2256ZM2.00168 41.8696H45.9045V37.8696H2.00168V41.8696ZM48.4037 37.2102L31.1512 11.2256L27.8188 13.4381L45.0714 39.4227L48.4037 37.2102ZM30.5928 13.997C30.5973 13.994 30.6018 13.991 30.6063 13.988L28.3861 10.6607C28.3832 10.6627 28.3802 10.6647 28.3772 10.6667L30.5928 13.997ZM31.1512 11.2256L31.1439 11.2145L27.8115 13.427L27.8188 13.4381L31.1512 11.2256ZM23.9531 16C26.4049 16 28.6905 15.2626 30.5928 13.997L28.3772 10.6667C27.1109 11.5091 25.5924 12 23.9531 12V16ZM17.3133 13.997C19.2157 15.2626 21.5013 16 23.9531 16V12C22.3138 12 20.7952 11.5091 19.5289 10.6667L17.3133 13.997ZM16.7623 11.2145L16.7549 11.2256L20.0873 13.4381L20.0947 13.427L16.7623 11.2145ZM20.0947 13.427C20.9832 12.0888 20.0237 10.3 18.4174 10.3V14.3C16.8323 14.3 15.8856 12.535 16.7623 11.2145L20.0947 13.427ZM29.4888 10.3C27.8825 10.3 26.923 12.0888 27.8115 13.427L31.1439 11.2145C32.0206 12.535 31.0738 14.3 29.4888 14.3V10.3ZM45.9045 41.8696C48.298 41.8696 49.7277 39.2042 48.4037 37.2102L45.0714 39.4227C44.6301 38.758 45.1066 37.8696 45.9045 37.8696V41.8696ZM-0.497599 37.2102C-1.82154 39.2042 -0.391861 41.8696 2.00168 41.8696V37.8696C2.79953 37.8696 3.27608 38.758 2.83477 39.4227L-0.497599 37.2102ZM30.6063 13.988C32.2727 12.8761 31.4686 10.3 29.4888 10.3V14.3C27.5353 14.3 26.7416 11.758 28.3861 10.6607L30.6063 13.988ZM19.52 10.6607C21.1645 11.758 20.3708 14.3 18.4174 14.3V10.3C16.4375 10.3 15.6334 12.8761 17.2999 13.988L19.52 10.6607Z" fill="black" mask="url(#path-1-inside-1_9_100)"/>
<circle cx="23.9531" cy="8" r="7" fill="white" stroke="black" stroke-width="2"/>
<line x1="55.4303" y1="48.6066" x2="45.5308" y2="38.7071" stroke="black" stroke-width="2"/>
<line x1="46.4303" y1="48.6066" x2="36.5308" y2="38.7071" stroke="black" stroke-width="2"/>
<line x1="37.4303" y1="48.6066" x2="27.5308" y2="38.7071" stroke="black" stroke-width="2"/>
<line x1="28.4303" y1="48.6066" x2="18.5308" y2="38.7071" stroke="black" stroke-width="2"/>
<line x1="19.4303" y1="48.6066" x2="9.53077" y2="38.7071" stroke="black" stroke-width="2"/>
<line x1="11.4303" y1="48.6066" x2="1.53077" y2="38.7071" stroke="black" stroke-width="2"/>
</svg>
