<svg width="50" height="59" viewBox="0 0 50 59" fill="none" xmlns="http://www.w3.org/2000/svg">
<mask id="path-1-inside-1_7_11" fill="white">
<path d="M20.6588 8.47981C24.0566 7.8807 27.5415 7.99136 30.8944 8.80483C34.2473 9.6183 37.3956 11.117 40.141 13.2065C42.8864 15.2961 45.1696 17.9313 46.8469 20.9463C48.5242 23.9614 49.5593 27.2909 49.887 30.7255C50.2147 34.1601 49.8279 37.6253 48.751 40.9031C47.6741 44.1809 45.9305 47.2004 43.6297 49.7714C41.3289 52.3424 38.5209 54.4094 35.3823 55.8422C32.2437 57.275 28.8426 58.0427 25.3928 58.0969L25.3476 55.2223C28.4007 55.1743 31.4107 54.4949 34.1883 53.2269C36.966 51.9588 39.4511 50.1295 41.4873 47.8542C43.5235 45.5788 45.0666 42.9066 46.0197 40.0058C46.9727 37.1049 47.315 34.0382 47.025 30.9986C46.735 27.959 45.8189 25.0123 44.3345 22.344C42.8501 19.6757 40.8295 17.3436 38.3998 15.4943C35.9701 13.645 33.1839 12.3187 30.2166 11.5988C27.2493 10.8789 24.165 10.7809 21.158 11.3111L20.6588 8.47981Z"/>
</mask>
<path d="M20.6588 8.47981C24.0566 7.8807 27.5415 7.99136 30.8944 8.80483C34.2473 9.6183 37.3956 11.117 40.141 13.2065C42.8864 15.2961 45.1696 17.9313 46.8469 20.9463C48.5242 23.9614 49.5593 27.2909 49.887 30.7255C50.2147 34.1601 49.8279 37.6253 48.751 40.9031C47.6741 44.1809 45.9305 47.2004 43.6297 49.7714C41.3289 52.3424 38.5209 54.4094 35.3823 55.8422C32.2437 57.275 28.8426 58.0427 25.3928 58.0969L25.3476 55.2223C28.4007 55.1743 31.4107 54.4949 34.1883 53.2269C36.966 51.9588 39.4511 50.1295 41.4873 47.8542C43.5235 45.5788 45.0666 42.9066 46.0197 40.0058C46.9727 37.1049 47.315 34.0382 47.025 30.9986C46.735 27.959 45.8189 25.0123 44.3345 22.344C42.8501 19.6757 40.8295 17.3436 38.3998 15.4943C35.9701 13.645 33.1839 12.3187 30.2166 11.5988C27.2493 10.8789 24.165 10.7809 21.158 11.3111L20.6588 8.47981Z" fill="#06BA63" stroke="#06BA63" stroke-width="2" mask="url(#path-1-inside-1_7_11)"/>
<path d="M3.78689 11.6177C3.29964 12.2877 3.44776 13.2258 4.11774 13.7131L15.0357 21.6534C15.7057 22.1407 16.6438 21.9926 17.131 21.3226C17.6183 20.6526 17.4702 19.7145 16.8002 19.2272L7.09536 12.1692L14.1534 2.46432C14.6407 1.79434 14.4926 0.856217 13.8226 0.368959C13.1526 -0.118298 12.2145 0.0298269 11.7272 0.699806L3.78689 11.6177ZM23.7661 8.01836L4.76606 11.0184L5.23394 13.9816L24.2339 10.9816L23.7661 8.01836Z" fill="#06BA63"/>
</svg>
